<svg width="204" height="200" viewBox="0 0 204 200" fill="none" xmlns="http://www.w3.org/2000/svg">
<path d="M57.147 137.94V144.24H65.607V148.236H57.147V154.896H66.687V159H52.107V133.836H66.687V137.94H57.147ZM91.6752 154.212H81.6672L80.0112 159H74.7192L83.7552 133.836H89.6232L98.6592 159H93.3312L91.6752 154.212ZM90.3072 150.18L86.6712 139.668L83.0352 150.18H90.3072ZM115.713 159.252C113.961 159.252 112.377 158.952 110.961 158.352C109.569 157.752 108.465 156.888 107.649 155.76C106.833 154.632 106.413 153.3 106.389 151.764H111.789C111.861 152.796 112.221 153.612 112.869 154.212C113.541 154.812 114.453 155.112 115.605 155.112C116.781 155.112 117.705 154.836 118.377 154.284C119.049 153.708 119.385 152.964 119.385 152.052C119.385 151.308 119.157 150.696 118.701 150.216C118.245 149.736 117.669 149.364 116.973 149.1C116.301 148.812 115.365 148.5 114.165 148.164C112.533 147.684 111.201 147.216 110.169 146.76C109.161 146.28 108.285 145.572 107.541 144.636C106.821 143.676 106.461 142.404 106.461 140.82C106.461 139.332 106.833 138.036 107.577 136.932C108.321 135.828 109.365 134.988 110.709 134.412C112.053 133.812 113.589 133.512 115.317 133.512C117.909 133.512 120.009 134.148 121.617 135.42C123.249 136.668 124.149 138.42 124.317 140.676H118.773C118.725 139.812 118.353 139.104 117.657 138.552C116.985 137.976 116.085 137.688 114.957 137.688C113.973 137.688 113.181 137.94 112.581 138.444C112.005 138.948 111.717 139.68 111.717 140.64C111.717 141.312 111.933 141.876 112.365 142.332C112.821 142.764 113.373 143.124 114.021 143.412C114.693 143.676 115.629 143.988 116.829 144.348C118.461 144.828 119.793 145.308 120.825 145.788C121.857 146.268 122.745 146.988 123.489 147.948C124.233 148.908 124.605 150.168 124.605 151.728C124.605 153.072 124.257 154.32 123.561 155.472C122.865 156.624 121.845 157.548 120.501 158.244C119.157 158.916 117.561 159.252 115.713 159.252ZM153.954 133.872L145.458 150.252V159H140.418V150.252L131.886 133.872H137.574L142.974 145.356L148.338 133.872H153.954ZM43.6406 169.872V173.94H36.9446V195H31.9046V173.94H25.2086V169.872H43.6406ZM65.278 195L59.734 185.208H57.358V195H52.318V169.872H61.75C63.694 169.872 65.35 170.22 66.718 170.916C68.086 171.588 69.106 172.512 69.778 173.688C70.474 174.84 70.822 176.136 70.822 177.576C70.822 179.232 70.342 180.732 69.382 182.076C68.422 183.396 66.994 184.308 65.098 184.812L71.11 195H65.278ZM57.358 181.428H61.57C62.938 181.428 63.958 181.104 64.63 180.456C65.302 179.784 65.638 178.86 65.638 177.684C65.638 176.532 65.302 175.644 64.63 175.02C63.958 174.372 62.938 174.048 61.57 174.048H57.358V181.428ZM95.7885 190.212H85.7805L84.1245 195H78.8325L87.8685 169.836H93.7365L102.772 195H97.4445L95.7885 190.212ZM94.4205 186.18L90.7845 175.668L87.1485 186.18H94.4205ZM133.722 169.872L124.506 195H118.386L109.17 169.872H114.57L121.482 189.852L128.358 169.872H133.722ZM146.784 173.94V180.24H155.244V184.236H146.784V190.896H156.324V195H141.744V169.836H156.324V173.94H146.784ZM170.944 191.004H179.224V195H165.904V169.872H170.944V191.004Z" fill="#006BA4"/>
<path d="M164.18 29.42C160.677 29.42 157.189 29.8875 153.81 30.81C149.411 21.5874 142.49 13.7991 133.849 8.34657C125.207 2.89408 115.198 0.000366211 104.98 0.000366211C94.762 0.000366211 84.7529 2.89408 76.1113 8.34657C67.4697 13.7991 60.5489 21.5874 56.15 30.81C50.3086 29.2155 44.1782 28.9895 38.2353 30.1496C32.2924 31.3097 26.697 33.8246 21.8841 37.4988C17.0712 41.1731 13.1704 45.9077 10.4849 51.3347C7.7994 56.7617 6.40155 62.7349 6.4 68.79C6.4 69.4 6.4 70 6.45 70.6C8.06 103.7 50.02 103.6 96.61 57.6C98.71 55.26 100.9 52.87 103.13 50.49L95.31 44.4L75.46 30.91C75.3933 30.8562 75.3385 30.7892 75.299 30.7131C75.2595 30.6371 75.2362 30.5537 75.2305 30.4682C75.2249 30.3826 75.237 30.2969 75.2662 30.2163C75.2954 30.1357 75.3409 30.0621 75.4 30L77.58 27.82C77.8152 27.5878 78.106 27.4199 78.4247 27.3323C78.7434 27.2448 79.0792 27.2405 79.4 27.32C79.4 27.32 107.22 34.86 115.32 38.14C125.59 28.53 138.15 20.51 139.73 22.14C141.31 23.77 133.22 36.14 123.62 46.37C126.9 54.16 134.62 82.57 134.62 82.57C134.703 82.8883 134.704 83.2225 134.622 83.5411C134.539 83.8596 134.377 84.1518 134.15 84.39L131.96 86.57C131.897 86.634 131.821 86.6832 131.737 86.7139C131.653 86.7446 131.563 86.7561 131.473 86.7475C131.384 86.7388 131.298 86.7103 131.221 86.664C131.145 86.6178 131.079 86.5549 131.03 86.48L117.5 66.58L111.28 58.58L111.06 58.79C78.56 91.28 106.99 108.18 132.23 108.18H164.23C174.564 108.015 184.419 103.794 191.669 96.4281C198.919 89.0618 202.982 79.1405 202.982 68.805C202.982 58.4695 198.919 48.5482 191.669 41.1819C184.419 33.8156 174.564 29.5947 164.23 29.43L164.18 29.42Z" fill="url(#paint0_linear_22_661)"/>
<mask id="mask0_22_661" style="mask-type:luminance" maskUnits="userSpaceOnUse" x="6" y="0" width="197" height="109">
<path d="M164.18 29.42C160.677 29.42 157.189 29.8875 153.81 30.81C149.411 21.5874 142.49 13.7991 133.849 8.34657C125.207 2.89408 115.198 0.000366211 104.98 0.000366211C94.762 0.000366211 84.7529 2.89408 76.1113 8.34657C67.4697 13.7991 60.5489 21.5874 56.15 30.81C50.3086 29.2155 44.1782 28.9895 38.2353 30.1496C32.2924 31.3097 26.697 33.8246 21.8841 37.4988C17.0712 41.1731 13.1704 45.9077 10.4849 51.3347C7.7994 56.7617 6.40155 62.7349 6.4 68.79C6.4 69.4 6.4 70 6.45 70.6C8.06 103.7 50.02 103.6 96.61 57.6C98.71 55.26 100.9 52.87 103.13 50.49L95.31 44.4L75.46 30.91C75.3933 30.8562 75.3385 30.7892 75.299 30.7131C75.2595 30.6371 75.2362 30.5537 75.2305 30.4682C75.2249 30.3826 75.237 30.2969 75.2662 30.2163C75.2954 30.1357 75.3409 30.0621 75.4 30L77.58 27.82C77.8152 27.5878 78.106 27.4199 78.4247 27.3323C78.7434 27.2448 79.0792 27.2405 79.4 27.32C79.4 27.32 107.22 34.86 115.32 38.14C125.59 28.53 138.15 20.51 139.73 22.14C141.31 23.77 133.22 36.14 123.62 46.37C126.9 54.16 134.62 82.57 134.62 82.57C134.703 82.8883 134.704 83.2225 134.622 83.5411C134.539 83.8596 134.377 84.1518 134.15 84.39L131.96 86.57C131.897 86.634 131.821 86.6832 131.737 86.7139C131.653 86.7446 131.563 86.7561 131.473 86.7475C131.384 86.7388 131.298 86.7103 131.221 86.664C131.145 86.6178 131.079 86.5549 131.03 86.48L117.5 66.58L111.28 58.58L111.06 58.79C78.56 91.28 106.99 108.18 132.23 108.18H164.23C174.564 108.015 184.419 103.794 191.669 96.4281C198.919 89.0618 202.982 79.1405 202.982 68.805C202.982 58.4695 198.919 48.5482 191.669 41.1819C184.419 33.8156 174.564 29.5947 164.23 29.43L164.18 29.42Z" fill="white"/>
</mask>
<g mask="url(#mask0_22_661)">
<g style="mix-blend-mode:multiply">
<path d="M194.402 103.06C198.977 74.7486 179.736 48.0885 151.424 43.5129C123.113 38.9373 96.453 58.179 91.8774 86.4903C87.3018 114.802 106.543 141.462 134.855 146.037C163.166 150.613 189.826 131.371 194.402 103.06Z" fill="#00D6EE"/>
</g>
<g style="mix-blend-mode:multiply">
<path d="M47.92 137.47C74.3855 137.47 95.84 116.015 95.84 89.55C95.84 63.0845 74.3855 41.63 47.92 41.63C21.4545 41.63 0 63.0845 0 89.55C0 116.015 21.4545 137.47 47.92 137.47Z" fill="#00D6EE"/>
</g>
</g>
<defs>
<linearGradient id="paint0_linear_22_661" x1="6.4" y1="54.08" x2="203.55" y2="54.08" gradientUnits="userSpaceOnUse">
<stop stop-color="#00D6EE"/>
<stop offset="1" stop-color="#009AE1"/>
</linearGradient>
</defs>
</svg>
